<svg width="48" height="48" viewBox="0 0 48 48" fill="none" xmlns="http://www.w3.org/2000/svg">
<g id="bxs:leaf">
<path id="Vector" d="M44 6.82005L43.76 4.30005L41.36 5.10005C37.2468 6.52914 32.8545 6.96768 28.54 6.38005C24.0063 5.67647 19.3658 6.30168 15.18 8.18005C12.961 9.12494 11.0135 10.6099 9.51495 12.4997C8.01639 14.3895 7.01433 16.6241 6.6 19C6.06276 22.0694 6.33152 25.2257 7.38 28.16C8.05511 26.6362 8.844 25.1654 9.74 23.76C11.7724 20.7697 14.5886 18.3964 17.88 16.9C21.0509 15.4523 24.5168 14.7673 28 14.9C24.6843 15.4082 21.5105 16.6001 18.68 18.4C17.3152 19.2581 16.0652 20.2864 14.96 21.46C13.9035 22.6337 12.9719 23.9139 12.18 25.28C10.6933 28.1362 9.63531 31.1957 9.04 34.3601C8.3984 37.5347 8.05027 40.7616 8 44H12C12.1901 41.0959 12.5844 38.2088 13.18 35.3601C15.9549 36.8585 19.0667 37.6226 22.22 37.5801C25.1609 37.578 28.0716 36.9864 30.78 35.84C46 29.34 44 7.72005 44 6.82005Z" fill="#90EE91"/>
</g>
</svg>
