<svg width="48" height="44" viewBox="0 0 48 44" fill="none" xmlns="http://www.w3.org/2000/svg">
<g id="Group">
<g id="Group_2">
<path id="Vector" d="M45.5546 23.6951C44.5321 23.3985 43.5347 23.2672 42.3922 23.2672C38.1135 23.2672 34.2978 25.3945 31.9031 28.9075C33.2501 31.0722 34.8026 35.4162 32.9812 40.1627C34.1134 39.7927 35.1651 39.3494 36.1069 38.8438C36.5505 38.1485 38.0674 35.5814 38.844 31.7235C38.3403 31.6861 37.784 31.5534 37.2384 31.2323C36.1774 30.6081 35.5081 29.4847 35.245 27.8935C35.1435 27.2803 35.5596 26.7008 36.1729 26.5993C36.7862 26.4983 37.3662 26.9127 37.4675 27.5262C37.6167 28.4281 37.9252 29.0222 38.3839 29.2921C38.643 29.4446 38.9384 29.4858 39.1931 29.4831C39.3253 28.2117 39.367 26.8391 39.2683 25.3766C39.2265 24.7564 39.6954 24.2197 40.3156 24.1776C40.9345 24.1401 41.4725 24.6048 41.5146 25.225C41.8161 29.6926 40.9592 33.38 39.9953 35.9965C43.7553 32.2767 45.1025 27.3592 45.5546 23.6951Z" fill="#90EE91"/>
<path id="Vector_2" d="M45.5585 23.666C45.5869 23.4334 45.6109 23.208 45.6324 22.9863C45.6107 23.2081 45.5869 23.4337 45.5585 23.666Z" fill="#90EE91"/>
<path id="Vector_3" d="M45.6453 22.8653C45.6696 22.6054 45.6899 22.3528 45.7059 22.1104C45.6899 22.3528 45.6697 22.6051 45.6453 22.8653Z" fill="#90EE91"/>
</g>
<g id="Group_3">
<path id="Vector_4" d="M29.2996 28.6127C27.9408 26.5724 26.1742 24.8518 23.9787 23.7415C23.663 23.5816 23.4406 23.2827 23.3786 22.9342C22.9494 20.521 21.3981 17.4173 18.8571 15.1567C19.1009 15.374 19.3371 15.5978 19.5626 15.8292C19.088 15.4935 18.5872 15.1865 18.0577 14.9188C15.0023 13.3738 11.5855 13.432 8.16897 15.0838C7.69678 15.4118 6.64359 15.9266 4.09137 17.0977C4.18476 26.3976 6.09807 33.006 9.92229 37.2088C10.0423 37.3513 10.1641 37.4913 10.2882 37.6288C11.5182 38.5412 12.8431 39.2374 14.2048 39.7632C13.4524 38.7429 12.6498 37.4896 11.9628 36.0483C10.5774 33.1419 10.0287 30.2321 10.3086 27.4094C9.82695 26.9714 9.10707 26.2177 8.53116 25.1935C7.64305 23.6144 6.92421 21.0864 8.54343 18.0114C8.83318 17.4614 9.514 17.2501 10.0639 17.5398C10.6139 17.8296 10.8251 18.5102 10.5353 19.0603C9.2476 21.5059 9.99532 23.4537 10.8526 24.6605C11.2935 23.187 11.9701 21.7466 12.8838 20.3538C13.2249 19.8337 13.9227 19.6892 14.4424 20.0302C14.9622 20.3713 15.1071 21.0691 14.766 21.5887C12.6332 24.8394 11.9914 28.2805 12.8407 31.854C14.1436 31.2122 16.3225 29.5436 16.7534 25.4635C16.819 24.8455 17.3696 24.4007 17.9911 24.4624C18.6094 24.5278 19.0575 25.0817 18.9922 25.7001C18.4214 31.1066 15.3014 33.2333 13.5298 34.0141C13.6711 34.3684 13.8249 34.7235 13.9948 35.0799C15.4221 38.0745 17.4318 40.1964 18.0907 40.8466C20.4432 41.2852 22.7285 41.3746 24.6356 41.3746C26.6772 41.3746 28.5202 41.1995 30.1885 40.8832C30.2022 40.853 30.2167 40.8229 30.2334 40.7937C33.6483 34.7775 29.3011 28.615 29.2996 28.6127Z" fill="#90EE91"/>
<path id="Vector_5" d="M17.9053 14.3885C17.7111 14.2459 17.5113 14.1095 17.3074 13.9775C17.511 14.1097 17.7112 14.2459 17.9053 14.3885Z" fill="#90EE91"/>
<path id="Vector_6" d="M18.7304 15.0481C18.5327 14.8766 18.3295 14.7105 18.1201 14.55C18.329 14.7108 18.5329 14.8766 18.7304 15.0481Z" fill="#90EE91"/>
<path id="Vector_7" d="M17.0774 13.8282C16.7997 13.6571 16.5158 13.4937 16.2211 13.3446C16.5158 13.4937 16.7998 13.657 17.0774 13.8282Z" fill="#90EE91"/>
</g>
<g id="Group_4">
<path id="Vector_8" d="M43.962 15.1758C43.9752 15.2996 43.9893 15.4221 44.0005 15.5486C43.9893 15.4223 43.9752 15.2996 43.962 15.1758Z" fill="#90EE91"/>
<path id="Vector_9" d="M44.0614 16.4917C44.0767 16.8249 44.0853 17.1661 44.0874 17.5154C44.0855 17.1662 44.0768 16.825 44.0614 16.4917Z" fill="#90EE91"/>
<path id="Vector_10" d="M44.0236 15.8594C44.0336 15.9948 44.0447 16.1288 44.0523 16.2671C44.0447 16.1288 44.0334 15.9948 44.0236 15.8594Z" fill="#90EE91"/>
<path id="Vector_11" d="M43.6475 13.2465C43.6707 13.3484 43.6936 13.4508 43.7148 13.5551C43.6934 13.4506 43.6705 13.3484 43.6475 13.2465Z" fill="#90EE91"/>
<path id="Vector_12" d="M42.4437 10.1449C42.4798 10.203 42.5135 10.2646 42.5483 10.3245C42.5136 10.2646 42.4798 10.203 42.4437 10.1449Z" fill="#90EE91"/>
<path id="Vector_13" d="M43.3311 12.0957C43.3601 12.1842 43.3881 12.2738 43.4155 12.3645C43.3882 12.274 43.3601 12.1842 43.3311 12.0957Z" fill="#90EE91"/>
<path id="Vector_14" d="M21.8908 15.0662C21.6547 14.7887 21.4112 14.5153 21.1541 14.2509C21.4112 14.5153 21.6544 14.789 21.8908 15.0662Z" fill="#90EE91"/>
<path id="Vector_15" d="M41.8739 10.9826C40.5472 9.41097 38.9288 9.08919 38.1198 8.99805C37.1185 10.1256 36.9159 10.9805 36.5248 12.6521C36.4459 12.9887 36.3615 13.3494 36.2635 13.7409C36.1825 14.0646 35.9619 14.3357 35.6612 14.4808C35.3607 14.626 35.0111 14.6302 34.7073 14.4927C32.9507 13.6974 31.0803 13.294 29.148 13.294C26.3605 13.294 24.0585 13.9208 22.041 15.2408C22.0331 15.2313 22.0246 15.2221 22.0168 15.2126C23.8208 17.378 24.997 19.868 25.483 21.991C27.2986 22.9954 28.8713 24.3611 30.1153 26.0066C31.2581 24.2801 32.7556 22.8062 34.5169 21.6854C36.8796 20.1825 39.6149 19.3879 42.4272 19.3879C42.9891 19.3879 43.5193 19.4171 44.036 19.475C44.0557 19.1381 44.0685 18.8093 44.0776 18.4847C43.9745 15.148 43.2296 12.5885 41.8739 10.9826Z" fill="#90EE91"/>
<path id="Vector_16" d="M42.6969 10.5865C42.7328 10.6542 42.7668 10.7247 42.8014 10.7943C42.7668 10.7248 42.733 10.6542 42.6969 10.5865Z" fill="#90EE91"/>
<path id="Vector_17" d="M43.1408 11.563C43.1725 11.6447 43.2028 11.7284 43.233 11.8123C43.2029 11.7282 43.1725 11.6447 43.1408 11.563Z" fill="#90EE91"/>
</g>
<g id="Group_5">
<path id="Vector_18" d="M18.397 4.79808C18.3442 4.7867 18.2912 4.77518 18.2378 4.7644C18.2912 4.77518 18.3441 4.7867 18.397 4.79808Z" fill="#90EE91"/>
<path id="Vector_19" d="M35.5873 7.00532C32.5575 5.04487 29.0907 4.05005 25.2461 4.05005C23.1644 4.05005 21.141 4.37497 19.2209 5.00266C21.9674 5.79783 23.8733 7.4796 24.8103 9.95146C26.1564 9.59331 27.5983 9.41476 29.1479 9.41476C30.9479 9.41476 32.7024 9.71499 34.3801 10.3084C34.6778 9.0406 34.9484 7.99774 35.6554 6.9019C35.6334 6.93617 35.6087 6.97089 35.5873 7.00532Z" fill="#90EE91"/>
<path id="Vector_20" d="M35.7521 6.75505C35.8473 6.61482 35.9463 6.47398 36.0575 6.33105C35.9463 6.47398 35.8468 6.61497 35.7521 6.75505Z" fill="#90EE91"/>
</g>
<g id="Group_6">
<path id="Vector_21" d="M16.5267 6.79382C16.5894 6.79966 16.6522 6.8055 16.7154 6.81238C16.6521 6.8055 16.5895 6.79951 16.5267 6.79382Z" fill="#90EE91"/>
<path id="Vector_22" d="M16.9514 6.8407C17.0149 6.84878 17.0782 6.85641 17.1418 6.86554C17.078 6.85641 17.0149 6.84863 16.9514 6.8407Z" fill="#90EE91"/>
<path id="Vector_23" d="M17.8397 6.98938C17.8926 7.00046 17.9456 7.01018 17.9985 7.02216C17.9456 7.01033 17.8926 7.0006 17.8397 6.98938Z" fill="#90EE91"/>
<path id="Vector_24" d="M17.3865 6.90442C17.4477 6.9146 17.5088 6.92388 17.57 6.9351C17.5086 6.92373 17.4475 6.91445 17.3865 6.90442Z" fill="#90EE91"/>
<path id="Vector_25" d="M19.6603 7.57666C19.7223 7.6051 19.7835 7.63563 19.8446 7.66586C19.7835 7.63563 19.7224 7.60525 19.6603 7.57666Z" fill="#90EE91"/>
<path id="Vector_26" d="M20.4411 8.00024C20.4998 8.03736 20.5581 8.07538 20.6156 8.11459C20.558 8.07538 20.4998 8.03751 20.4411 8.00024Z" fill="#90EE91"/>
<path id="Vector_27" d="M15.47 6.73665C15.4145 6.73575 15.359 6.73455 15.3042 6.73425C15.3588 6.7347 15.4145 6.73575 15.47 6.73665Z" fill="#90EE91"/>
<path id="Vector_28" d="M20.8104 8.25391C20.8662 8.29536 20.922 8.33682 20.9766 8.38052C20.922 8.33682 20.8663 8.29536 20.8104 8.25391Z" fill="#90EE91"/>
<path id="Vector_29" d="M12.9341 6.89162C12.9583 6.88833 12.9826 6.88488 13.0079 6.88159C12.9826 6.88488 12.9586 6.88818 12.9341 6.89162Z" fill="#90EE91"/>
<path id="Vector_30" d="M12.7184 6.9229C12.7363 6.92021 12.7545 6.91737 12.7732 6.91467C12.7544 6.91737 12.7366 6.92006 12.7184 6.9229Z" fill="#90EE91"/>
<path id="Vector_31" d="M12.3867 6.97767C12.3891 6.97722 12.3917 6.97677 12.394 6.97632C12.3916 6.97677 12.3891 6.97722 12.3867 6.97767Z" fill="#90EE91"/>
<path id="Vector_32" d="M12.5358 6.95187C12.5459 6.95022 12.5566 6.94842 12.5671 6.94678C12.5565 6.94842 12.546 6.95007 12.5358 6.95187Z" fill="#90EE91"/>
<path id="Vector_33" d="M8.61916 10.3187C8.45079 10.3578 8.28092 10.4004 8.10956 10.4468C8.28092 10.4003 8.45064 10.3579 8.61916 10.3187Z" fill="#90EE91"/>
<path id="Vector_34" d="M7.20856 10.7253C7.50789 10.6435 7.68344 10.5718 7.91752 10.5043C7.68359 10.5716 7.50789 10.6435 7.20856 10.7253Z" fill="#90EE91"/>
<path id="Vector_35" d="M21.9403 9.36763C18.6948 7.25093 13.6526 8.32896 13.5853 8.34393C13.5815 8.34482 13.5778 8.34482 13.5742 8.34557C13.5702 8.34647 13.5661 8.34797 13.5621 8.34872C12.3416 8.59611 10.4431 9.25478 9.41355 10.1561C9.21943 10.1891 9.02292 10.228 8.82477 10.2709C12.3678 9.50397 15.2594 10.336 17.2369 11.3359C18.0269 11.7355 18.7641 12.208 19.4494 12.7327C20.4552 11.8965 21.5322 11.2236 22.6858 10.7059C22.486 10.2001 22.2333 9.75691 21.9403 9.36763Z" fill="#90EE91"/>
<path id="Vector_36" d="M13.8025 6.79487C13.824 6.79308 13.8444 6.79098 13.8662 6.78918C13.8444 6.79098 13.8242 6.79308 13.8025 6.79487Z" fill="#90EE91"/>
<path id="Vector_37" d="M14.5536 6.74715C14.592 6.74565 14.6321 6.74476 14.671 6.74341C14.6319 6.74476 14.592 6.74565 14.5536 6.74715Z" fill="#90EE91"/>
<path id="Vector_38" d="M14.9209 6.73645C14.9698 6.73556 15.02 6.73541 15.0697 6.73511C15.0198 6.73541 14.9698 6.73556 14.9209 6.73645Z" fill="#90EE91"/>
<path id="Vector_39" d="M15.7015 6.74219C15.7596 6.74413 15.8184 6.74653 15.8771 6.74922C15.8183 6.74653 15.7598 6.74398 15.7015 6.74219Z" fill="#90EE91"/>
<path id="Vector_40" d="M13.4666 6.82696C13.4967 6.82382 13.5256 6.82053 13.5566 6.81738C13.5256 6.82053 13.4968 6.82382 13.4666 6.82696Z" fill="#90EE91"/>
<path id="Vector_41" d="M13.1839 6.85908C13.2122 6.85564 13.2399 6.8522 13.2691 6.84875C13.2397 6.85205 13.2123 6.85549 13.1839 6.85908Z" fill="#90EE91"/>
</g>
<path id="Vector_42" d="M46.2756 19.7449C46.6122 14.3915 45.7113 10.4101 43.5939 7.90223C42.2134 6.26685 40.3822 5.3283 38.1491 5.11099C34.3656 2.011 29.7007 0.374268 24.6356 0.374268C19.7982 0.374268 15.2363 1.93048 11.4251 4.87736C10.2686 5.14392 6.30969 6.23108 5.26998 8.81129C5.24079 8.88342 5.21924 8.95841 5.20562 9.03504L4.7041 11.859C3.95832 12.2441 2.22087 13.064 0.657624 13.7786C0.256973 13.962 0 14.362 0 14.8026C0 26.1786 2.58261 33.9615 7.89509 38.5957C13.064 43.1044 19.9248 43.6259 24.6356 43.6259C32.3128 43.6259 38.2801 41.3209 42.3723 36.775C45.8263 32.938 47.7719 27.6063 47.9991 21.3554C48.0272 20.5649 47.4642 20.1467 46.2756 19.7449ZM41.5146 25.225C41.4727 24.6047 40.9347 24.14 40.3158 24.1776C39.6956 24.2195 39.2267 24.7562 39.2684 25.3764C39.3672 26.8389 39.3256 28.2115 39.1935 29.4829C38.9386 29.4856 38.6434 29.4443 38.3842 29.2919C37.9255 29.0221 37.6172 28.4279 37.4681 27.526C37.3667 26.9126 36.7873 26.498 36.174 26.5992C35.5607 26.7006 35.1458 27.2801 35.2471 27.8933C35.5104 29.4847 36.1818 30.6081 37.2427 31.2323C37.7884 31.5534 38.3492 31.6861 38.8527 31.7235C38.0761 35.5814 36.5679 38.1486 36.1243 38.8439C35.1825 39.3494 34.1483 39.7928 33.0161 40.1626C35.1139 34.6963 32.547 29.7616 31.4907 28.0774C33.7006 24.0907 37.8333 21.6393 42.4273 21.6393C43.6262 21.6393 44.6263 21.7816 45.7061 22.1103C45.4599 25.8257 44.3301 31.7084 39.9955 35.9964C40.9592 33.38 41.8163 29.6926 41.5146 25.225ZM30.2334 40.7936C30.2166 40.823 30.2021 40.853 30.1883 40.8831C28.5202 41.1994 26.6772 41.3745 24.6356 41.3745C22.7285 41.3745 20.4432 41.2851 18.0907 40.8465C17.4318 40.1963 15.4223 38.0742 13.9949 35.0797C13.8251 34.7232 13.6712 34.3682 13.5299 34.014C15.3015 33.2332 18.4216 31.1065 18.9924 25.7C19.0576 25.0816 18.6094 24.5277 17.9913 24.4623C17.3697 24.4008 16.8191 24.8456 16.7536 25.4634C16.3227 29.5435 14.1437 31.2121 12.8409 31.8539C11.9915 28.2804 12.6333 24.8391 14.7662 21.5886C15.1073 21.0689 14.9624 20.371 14.4426 20.0301C13.923 19.689 13.2251 19.8338 12.884 20.3537C11.9701 21.7465 11.2935 23.1867 10.8527 24.6604C9.99547 23.4537 9.24775 21.5058 10.5355 19.0601C10.8252 18.5101 10.614 17.8295 10.064 17.5397C9.51415 17.25 8.83333 17.4613 8.54358 18.0113C6.92436 21.0863 7.6432 23.6143 8.53131 25.1934C9.10707 26.2175 9.8271 26.9712 10.3087 27.4093C10.0288 30.232 10.5775 33.1417 11.963 36.0482C12.6499 37.4893 13.4526 38.7428 14.2049 39.7629C12.4997 39.1044 10.8493 38.1845 9.37511 36.8988C4.69018 32.812 2.35826 25.8155 2.25499 15.5231C4.80721 14.352 5.8604 13.8372 6.33259 13.5092C9.74898 11.8576 13.166 11.7992 16.2214 13.3442C20.3373 15.4255 22.8168 19.7742 23.3787 22.9337C23.4407 23.2823 23.6631 23.5813 23.9789 23.741C26.1743 24.8514 27.9411 26.5718 29.2998 28.6123C29.3011 28.615 33.6483 34.7776 30.2334 40.7936ZM12.1375 7.02609C12.1417 7.02519 12.1455 7.0237 12.1496 7.0228C12.1532 7.02205 12.1569 7.02205 12.1608 7.02115C12.2473 7.00185 20.5233 5.23222 22.6859 10.7059C21.5322 11.2236 20.4554 11.8965 19.4496 12.7325C18.7643 12.2076 18.0271 11.7351 17.2371 11.3357C14.9637 10.1863 11.483 9.25609 7.19211 10.7255L7.39895 9.56066C8.01317 8.2912 10.6082 7.33605 12.1375 7.02609ZM41.8738 9.35442C43.5653 11.3581 44.3072 14.8447 44.0358 19.475C43.5191 19.4171 42.9888 19.3879 42.4271 19.3879C39.6148 19.3879 36.8795 20.1825 34.5168 21.6854C32.7554 22.8061 31.258 24.2801 30.1151 26.0067C28.8711 24.3611 27.2984 22.9954 25.4829 21.991C24.9231 19.5458 23.4506 16.6125 21.154 14.2507C23.3804 12.493 25.9435 11.6658 29.1479 11.6658C31.0802 11.6658 32.9504 12.0692 34.7071 12.8645C35.0109 13.0019 35.3606 12.9978 35.6611 12.8527C35.9616 12.7075 36.1822 12.4365 36.2633 12.1127C36.3614 11.7212 36.4458 11.3605 36.5247 11.0239C36.9157 9.35232 37.1184 8.49729 38.1196 7.36987C38.9289 7.46102 40.547 7.78294 41.8738 9.35442ZM34.3803 10.3084C32.7025 9.71496 30.9482 9.41473 29.148 9.41473C27.5982 9.41473 26.1564 9.59328 24.8104 9.95143C23.673 6.95081 21.1115 5.11144 17.3467 4.61306C16.9858 4.56531 16.6299 4.53254 16.2826 4.51114C18.8646 3.27177 21.6925 2.62537 24.6358 2.62537C28.9449 2.62537 32.7812 3.87177 36.0575 6.33105C35.0353 7.6463 34.729 8.82266 34.3803 10.3084Z" fill="#E5F6DF"/>
</g>
</svg>
