<svg width="96" height="40" viewBox="0 0 96 40" fill="none" xmlns="http://www.w3.org/2000/svg">
<g id="Layer_x0020_1">
<g id="_2713112901600">
<path id="Vector" d="M2.60606 21.5758L3.21212 20.9091V20.8485H0V20.9091L0.666667 21.5758V30.4242L0 31.0303V31.1515H3.21212V31.0303L2.60606 30.4242V28C2.9697 26.303 3.81818 25.7576 4.48485 25.7576C5.0303 25.7576 5.39394 26.1212 5.39394 26.5455C5.39394 26.7273 5.27273 26.9091 5.09091 26.9091C5.09091 27.3939 5.39394 27.6364 5.69697 27.6364C6 27.6364 6.30303 27.3939 6.42424 26.9091V30.4242L5.75758 31.0303V31.1515H8.9697V31.0303L8.36364 30.4242V21.5758L8.9697 20.9091V20.8485H5.75758V20.9091L6.42424 21.5758V26.303C6.24242 25.6364 5.39394 25.1515 4.36364 25.1515C3.75758 25.1515 3.15152 25.2727 2.60606 25.697V21.5758ZM10.303 30.4242L9.63636 31.0303V31.1515H16.6061L16.9697 29.7576H16.4848L15.8788 30.4242H12.1818C12.1818 26.6667 13.2727 25.5151 14.0606 25.5151C14.4242 25.5151 14.6667 25.7576 14.6667 26.1818C14.6667 26.3636 14.5455 26.5455 14.2424 26.5455C14.303 27.0303 14.6667 27.2727 15.0303 27.2727C15.4545 27.2727 15.9394 26.9091 15.9394 26.2424C15.9394 25.4545 15.0909 24.8485 14.0606 24.8485C13.4545 24.8485 12.7879 25.0303 12.1818 25.5151V21.5758H15.8788L16.4848 22.2424H16.9697L16.6061 20.8485H9.63636V20.9091L10.303 21.5758V30.4242ZM17.4545 30.4242L16.7273 31.0303V31.1515H19.0303V31.0303L18.5455 30.6061L19.3939 27.5151C20.9697 27.9394 21.9394 29.0303 22.4242 30.4242V30.5455L21.9394 31.0303V31.1515H25.0303V31.0303L24.3636 30.4242L22 21.4545L22.5455 20.9091V20.8485H19.2121V20.9091L19.7576 21.4545L17.4545 30.4242ZM21.8182 28.1212C21.2121 27.5758 20.4242 27.1515 19.5152 26.9091L20.4848 23.1515L21.8182 28.1212ZM25.6364 27.6364C25.3333 27.9394 25.2121 28.303 25.2121 28.7273C25.2121 30.303 26.6667 31.1515 28.3636 31.1515C30.6061 31.1515 33.2727 29.6364 33.2727 26C33.2727 23.3939 31.7576 20.8485 28.7879 20.8485H24.9697V20.9091L25.6364 21.5758V27.6364ZM27.2727 28.1212C27.3333 28.1212 27.4545 28.1818 27.4545 28.303C27.9394 28.303 28.0606 27.5758 27.5152 27.2121V21.5758H28.7879C30.5455 21.5758 31.3939 23.7576 31.3939 26C31.3939 29.2727 29.697 30.5455 28.303 30.5455C27.3939 30.5455 26.6061 29.9394 26.6061 29.0909C26.6061 28.5455 26.9091 28.1212 27.2727 28.1212Z" fill="#8DC543"/>
<path id="Vector_2" d="M40.5455 30.4242L39.9394 31.0303V31.1515H43.7576C47.8788 31.1515 47.5152 27.0909 45.2121 27.0909C44 27.0909 44.1212 28.303 44.6667 28.303C44.6667 28.1818 44.7879 28.1212 44.8485 28.1212C45.8182 28.1212 45.9394 30.4242 43.8182 30.4242H42.4848V21.5758L43.1515 20.9091V20.8485H39.9394V20.9091L40.5455 21.5758V30.4242Z" fill="#8DC543"/>
<path id="Vector_3" d="M47.9394 30.4242L47.2727 31.0303V31.1515H54.2424L54.6061 29.7576H54.1818L53.5152 30.4242H49.8182C49.8182 26.6667 50.9697 25.5151 51.697 25.5151C52.0606 25.5151 52.303 25.7576 52.303 26.1818C52.303 26.3636 52.1818 26.5455 51.9394 26.5455C51.9394 27.0303 52.303 27.2727 52.6667 27.2727C53.0909 27.2727 53.5758 26.9091 53.5758 26.2424C53.5758 25.4545 52.7273 24.8485 51.697 24.8485C51.0909 24.8485 50.4243 25.0303 49.8182 25.5151V21.5758H53.5152L54.1818 22.2424H54.6061L54.2424 20.8485H47.2727V20.9091L47.9394 21.5758V30.4242Z" fill="#8DC543"/>
<path id="Vector_4" d="M57.8182 30.4242L57.1515 31.0303V31.1515H60.3636V31.0303L59.697 30.4242V22.1212H61.5758L62.1212 22.7879H62.4849L62.1818 20.8485H55.3939L55.0909 22.7879H55.4545L55.9394 22.1212H57.8182V30.4242Z" fill="#8DC543"/>
<path id="Vector_5" d="M65.6364 30.4242L65.0303 31.0303V31.1515H68.2425V31.0303L67.5758 30.4242V22.1212H69.4546L69.9394 22.7879H70.3031L70 20.8485H63.2121L62.9091 22.7879H63.2728L63.8182 22.1212H65.6364V30.4242Z" fill="#8DC543"/>
<path id="Vector_6" d="M73.5758 20.8485H71.6364V27.0303H73.5758V20.8485ZM71.697 21.5758V20.8485H70.9697V20.9091L71.6364 21.5758H71.697ZM73.5758 21.5758L74.1818 20.9091V20.8485H73.5152V21.5758H73.5758ZM77.394 21.5758V20.8485H76.7273V20.9091L77.394 21.5758ZM78.4849 21.5758L79.1515 20.9091V20.8485H78.4849V21.5758ZM78.4849 27.3939V20.8485H77.394V27.3939H78.4849ZM77.394 27.3939C77.394 31.7576 72.5455 30.9697 72.5455 28.5455C72.5455 27.9394 72.8485 27.5151 73.394 27.5151C73.4546 27.5151 73.6364 27.5758 73.6364 27.697C74.2425 27.697 74.3031 26.3636 73.0303 26.3636C71.8182 26.3636 71.1515 27.2121 71.1515 28.2424C71.1515 32.1212 78.4849 32.3636 78.4849 27.3939H77.394Z" fill="#8DC543"/>
<path id="Vector_7" d="M85.4546 23.8788C85.3333 23.8788 85.2727 23.8182 85.2727 23.6364C84.6667 23.697 84.6061 24.8485 85.8182 24.8485C88.1212 24.8485 88.4849 20.6667 84.3637 20.6667C77.8182 20.6667 77.8182 31.1515 84.3637 31.1515C86.1212 31.1515 87.5152 30.1212 87.5152 29.0303C87.5152 28.4242 87.0303 27.6364 85.9394 27.7576C86.6061 28.8485 86.1212 30.4242 84.4243 30.4242C80.303 30.4242 80.303 21.3939 84.4243 21.3939C86.5455 21.3939 86.4243 23.8788 85.4546 23.8788Z" fill="#8DC543"/>
<path id="Vector_8" d="M88.8485 30.4242L88.1818 31.0303V31.1515H95.0909L95.4546 29.7576H95.0303L94.4242 30.4242H90.7273C90.7273 26.6667 91.8182 25.5151 92.5455 25.5151C92.9091 25.5151 93.2121 25.7576 93.2121 26.1818C93.2121 26.3636 93.0303 26.5455 92.7879 26.5455C92.7879 27.0303 93.1515 27.2727 93.5152 27.2727C93.9394 27.2727 94.4242 26.9091 94.4242 26.2424C94.4242 25.4545 93.6364 24.8485 92.6061 24.8485C92 24.8485 91.3333 25.0303 90.7273 25.5151V21.5758H94.4242L95.0303 22.2424H95.4546L95.0909 20.8485H88.1818V20.9091L88.8485 21.5758V30.4242Z" fill="#8DC543"/>
<path id="Vector_9" d="M16.1212 34L16.5455 33.5758H14.6061L14.9697 34V39.394L14.6061 39.8182V39.8788H16.5455V39.8182L16.1212 39.394V34ZM25.1515 34L25.5758 33.5758H24.0606L24.4243 34V37.7576L21.5758 33.5758H20.0606L20.4243 34V39.394L20.0606 39.8182V39.8788H21.5758V39.8182L21.1515 39.394V35.0303L24.4243 39.8788H25.1515V34ZM28.9697 37.697C28.8485 37.8788 28.7273 38.1212 28.7273 38.3636C28.7273 39.3333 29.6364 39.8788 30.6667 39.8788C32.0606 39.8788 33.697 38.9091 33.697 36.7273C33.697 35.1515 32.7879 33.5758 30.9697 33.5758H28.6061L28.9697 34V37.697ZM30 38C30.0606 38 30.1212 38.0606 30.1212 38.1212C30.4243 38.1212 30.4849 37.6364 30.1818 37.4546V34H30.9697C32 34 32.5455 35.3333 32.5455 36.7273C32.5455 38.7273 31.5152 39.5152 30.6667 39.5152C30.0606 39.5152 29.5758 39.1515 29.5758 38.6061C29.5758 38.303 29.8182 38 30 38ZM39.9394 33.394C36.1212 33.394 36.1212 39.9394 39.9394 39.9394C43.7576 39.9394 43.7576 33.394 39.9394 33.394ZM39.9394 33.8788C42 33.8788 42 39.5152 39.9394 39.5152C37.8788 39.5152 37.8788 33.8788 39.9394 33.8788ZM51.2727 34L51.697 33.5758H50.1818L50.6061 34V37.7576L47.697 33.5758H46.1818L46.6061 34V39.394L46.1818 39.8182V39.8788H47.697V39.8182L47.2727 39.394V35.0303L50.6061 39.8788H51.2727V34ZM55.2727 39.394L54.9091 39.8182V39.8788H59.1515L59.394 39.0303H59.0909L58.7273 39.394H56.4243C56.4243 37.0909 57.1515 36.4243 57.5758 36.4243C57.8182 36.4243 58 36.5455 58 36.7879C58 36.9091 57.8788 37.0303 57.697 37.0303C57.7576 37.3333 57.9394 37.4546 58.1818 37.4546C58.4243 37.4546 58.7273 37.2727 58.7273 36.8485C58.7273 36.3636 58.2424 36 57.5758 36C57.2121 36 56.7879 36.1212 56.4243 36.4243V34H58.7273L59.0909 34.3636H59.394L59.1515 33.5758H54.9091L55.2727 34V39.394ZM66.3637 38.1818C66.3637 39.0909 65.697 39.5152 64.9697 39.5152C64.1818 39.5152 63.5758 39.0303 63.5758 38.0606C63.5758 37.8182 63.6364 37.5152 63.8182 37.394C63.697 37.3333 63.5758 37.3333 63.4546 37.3333C62.8485 37.3333 62.4243 37.7576 62.4243 38.2424C62.4243 39.394 63.697 40 64.9697 40C66.2424 40 67.4546 39.3333 67.5152 38.1212C67.5152 36.0606 63.9394 36.8485 63.9394 35.2121C63.9394 34.303 64.6061 33.8788 65.2121 33.8788C65.8182 33.8788 66.3637 34.2424 66.3637 34.7879C66.3637 35.0909 66.1818 35.3333 65.9394 35.3333C65.8788 35.3333 65.8182 35.3333 65.8182 35.2121C65.697 35.2121 65.5758 35.3333 65.5758 35.5152C65.5758 35.7576 65.7576 36 66.1818 36C66.7879 36 67.2121 35.4546 67.2121 34.8485C67.2121 33.9394 66.1818 33.394 65.0909 33.394C64 33.394 62.7879 34 62.7879 35.2121C62.7879 37.3333 66.3637 36.4849 66.3637 38.1818ZM72.3637 34L72.7879 33.5758H70.8485L71.2121 34V39.394L70.8485 39.8182V39.8788H72.7879V39.8182L72.3637 39.394V34ZM76.2424 39.394L75.8182 39.8182V39.8788H77.2121V39.8182L76.9091 39.5152L77.4546 37.6364C78.4243 37.9394 79.0303 38.6061 79.2728 39.394L79.3334 39.5152L78.9697 39.8182V39.8788H80.9091V39.8182L80.4849 39.394L79.0303 33.9394L79.394 33.5758H77.3334L77.697 33.9394L76.2424 39.394ZM78.9091 38C78.5455 37.6364 78.0606 37.394 77.5152 37.2727L78.1212 34.9697L78.9091 38Z" fill="#036839"/>
<path id="Vector_10" d="M0.545462 17.697C0.42425 17.697 0.242432 17.5758 0.242432 17.3939C0.242432 17.2121 0.42425 17.0909 0.545462 17.0909H39.7576C40.1212 17.3333 40.5455 17.5152 40.9697 17.697H0.545462ZM55.4546 17.0909H94.4849C94.6667 17.0909 94.7879 17.2121 94.7879 17.3939C94.7879 17.5758 94.6667 17.697 94.4849 17.697H54.1212C54.6061 17.5152 55.0303 17.3333 55.4546 17.0909Z" fill="#036839"/>
<path id="Vector_11" d="M0.545462 37.0303C0.42425 37.0303 0.242432 36.8485 0.242432 36.6667C0.242432 36.5455 0.42425 36.3636 0.545462 36.3636H10.2424V37.0303H0.545462ZM84.8485 36.3636H94.4849C94.6667 36.3636 94.7879 36.5455 94.7879 36.6667C94.7879 36.8485 94.6667 37.0303 94.4849 37.0303H84.8485V36.3636Z" fill="#036839"/>
<path id="Vector_12" fill-rule="evenodd" clip-rule="evenodd" d="M48.3636 16.8485C49.1515 13.2121 47.0303 12.7273 44.303 12.4242C43.0909 12.2424 42.3636 11.9394 42.9091 11.2121C43.394 10.4849 43.6364 10.2424 43.0303 9.81819C42.3636 9.45455 42.3636 9.45455 42.3636 9.45455C42.3636 9.45455 42.9697 8.60606 42.3636 8.18182C41.8182 7.69697 41.5758 7.75758 41.5758 7.75758C41.5758 7.75758 41.8182 6.84849 41.1515 6.72728C40.4849 6.66667 40.1818 6.90909 40.1818 6.90909C40.1818 6.90909 39.9394 6.12122 39.2121 6.12122C38.5455 6.12122 38.1818 6.78788 38.1818 6.78788C38.1818 6.78788 36.9697 6.12122 36.3636 7.33334C36.3636 7.33334 37.5152 7.87879 37.7576 9.57576C37.8788 10.2424 38 10.7879 38.0606 11.3333C38.2424 10.6061 38.6667 9.09091 39.5758 8.48485C39.5758 8.48485 40.1818 8.06061 40.0606 8.48485C38.8485 9.9394 38.1212 12.303 39.2121 13.9394C39.2121 13.9394 39.394 13.9394 39.3333 13.6364C39.3333 13.3333 39.394 11.1515 40.4849 10.303C40.4849 10.303 41.0909 10 40.9091 10.4849C40.9091 10.4849 40.2424 11.1515 40 12.1212C39.394 15.0303 40.303 16.1818 43.9394 16.4849C47.2121 16.7273 48.3636 16.8485 48.3636 16.8485Z" fill="#036839"/>
<path id="Vector_13" fill-rule="evenodd" clip-rule="evenodd" d="M42 1.75757C41.5152 2.0606 40.9091 2.48484 41.2121 3.57575C41.5152 4.66666 40.8485 5.75757 40.5455 6.24242C40.7879 6.18181 41.0303 6.18181 41.2727 6.24242C41.3334 6.24242 41.394 6.24242 41.4546 6.30302C42.6061 5.15151 44.3637 4.78787 44.0606 5.0909C43.8182 5.39393 42.6667 5.87878 42 6.66666C42.1212 6.84848 42.1818 7.15151 42.1818 7.39393C42.4243 7.51514 42.6061 7.63636 42.7273 7.75757C43.1515 7.57575 44.2424 7.27272 44.1212 7.51514C44 7.75757 43.2727 8.1212 43.0909 8.18181C43.2121 8.48484 43.2121 8.84848 43.0909 9.21211L43.1515 9.27272C43.2121 9.33333 43.2727 9.33333 43.3334 9.39393C43.6364 9.57575 43.8788 9.81817 43.9394 10.1818C44 10.6667 43.6364 11.1515 43.3334 11.5151V11.5757C44.0606 12 45.5152 11.8788 46.3637 12.1212C45.8788 11.6364 45.0303 10.6061 45.0303 10.2424C45.0303 9.81817 45.4546 9.87878 45.8182 9.21211C46.1212 8.60605 45.5152 7.81817 45.5152 7.81817C45.5152 7.81817 46.1212 7.51514 46.2424 6.90908C46.303 6.36363 45.7576 5.87878 45.7576 5.87878C45.7576 5.87878 46.0606 5.63636 45.8788 5.0303C45.697 4.36363 44.9091 4.24242 44.9091 4.24242C44.9091 4.24242 44.9091 4.24242 44.9091 4.18181C44.9091 4.1212 44.9697 3.99999 44.9697 3.87878C44.9697 2.60605 43.0909 3.33333 42 1.75757Z" fill="#48973E"/>
<path id="Vector_14" fill-rule="evenodd" clip-rule="evenodd" d="M53.697 1.75757C54.1212 2.0606 54.7879 2.48484 54.4243 3.57575C54.1212 4.66666 54.7879 5.75757 55.0909 6.24242C54.8485 6.18181 54.6061 6.18181 54.4243 6.24242C54.303 6.24242 54.2424 6.24242 54.1818 6.30302C53.0303 5.15151 51.2727 4.78787 51.5758 5.0909C51.8182 5.39393 53.0303 5.87878 53.697 6.66666C53.5152 6.84848 53.4546 7.15151 53.4546 7.39393C53.2727 7.51514 53.0303 7.63636 52.9091 7.75757C52.5455 7.57575 51.3939 7.27272 51.5152 7.51514C51.6364 7.75757 52.4243 8.1212 52.5455 8.18181C52.4243 8.48484 52.4243 8.84848 52.5455 9.21211V9.27272C52.4849 9.33333 52.4243 9.33333 52.3636 9.39393C52.0606 9.57575 51.7576 9.81817 51.697 10.1818C51.6364 10.6667 52 11.1515 52.303 11.5151V11.5757C51.5758 12 50.1212 11.8788 49.2727 12.1212C49.7576 11.6364 50.6061 10.6061 50.6061 10.2424C50.6061 9.81817 50.1818 9.87878 49.8788 9.21211C49.5152 8.60605 50.1212 7.81817 50.1212 7.81817C50.1212 7.81817 49.5152 7.51514 49.3939 6.90908C49.3333 6.36363 49.8788 5.87878 49.8788 5.87878C49.8788 5.87878 49.5758 5.63636 49.7576 5.0303C49.9394 4.36363 50.7273 4.24242 50.7273 4.24242C50.7273 4.24242 50.7273 4.24242 50.7273 4.18181C50.7273 4.1212 50.7273 3.99999 50.7273 3.87878C50.7273 2.60605 52.5455 3.33333 53.697 1.75757Z" fill="#48973E"/>
<path id="Vector_15" fill-rule="evenodd" clip-rule="evenodd" d="M48.0606 10.4242V12.5455L48.6061 12.0606C48.6667 12.0606 48.7273 12 48.7273 11.9394L48.9697 11.7576C49.1515 11.5152 49.9394 10.6061 50.1212 10.2424C50.0606 10.1818 49.9394 10.1212 49.8788 10.0606C49.697 9.87879 49.5152 9.69697 49.3939 9.45455C49.3939 9.39394 49.3333 9.33333 49.3333 9.21212C49.2121 8.90909 49.2121 8.60606 49.3333 8.24242C49.3939 8.18182 49.3939 8.06061 49.4546 7.93939C49.2121 7.75758 49.0303 7.45455 48.9697 7.21212V7.15152C48.9697 7.09091 48.9091 7.09091 48.9091 7.0303C48.9091 6.78788 48.9091 6.60606 48.9697 6.42424C49.0303 6.18182 49.1515 6 49.2727 5.81818V5.75758C49.1515 5.51515 49.2121 5.15152 49.2727 4.90909C49.3939 4.42424 49.7576 4.12121 50.1818 3.87879C50.1818 3.57576 50.303 3.27273 50.5455 3.0303C50.9091 2.54545 51.5152 2.48485 52.1212 2.30303C52.1818 2.24242 52.2424 2.18182 52.303 2.18182C52.2424 2.12121 52.1818 2.12121 52.1212 2.12121C51.5758 1.63636 50.6667 1.87879 50.6667 1.87879C50.6667 1.87879 51.0303 0.969697 50.303 0.727273C49.6364 0.424242 48.9697 0.848485 48.9697 0.848485C48.8485 0.121212 47.8182 0 47.8182 0C47.8182 0 46.7879 0.121212 46.6061 0.848485C46.6061 0.848485 45.9394 0.424242 45.2727 0.727273C44.5455 0.969697 44.9091 1.87879 44.9091 1.87879C44.9091 1.87879 44 1.63636 43.4546 2.12121C43.3939 2.12121 43.3939 2.18182 43.3333 2.18182C43.3939 2.24242 43.3939 2.24242 43.3939 2.24242C44.0606 2.48485 44.7273 2.54545 45.1515 3.0303C45.3333 3.27273 45.4546 3.57576 45.4546 3.87879C45.8788 4.12121 46.2424 4.42424 46.3636 4.90909C46.4849 5.15152 46.4849 5.51515 46.3636 5.81818C46.6061 6.18182 46.7879 6.60606 46.7273 7.0303C46.6667 7.39394 46.4849 7.69697 46.1818 7.93939C46.4243 8.42424 46.4849 9.0303 46.2424 9.45455C46.1212 9.69697 45.9394 9.87879 45.7576 10.0606C45.697 10.1212 45.6364 10.1818 45.5758 10.2424C45.697 10.6061 46.4849 11.5152 46.7273 11.7576L47.1515 12.2424L47.5758 12.5455L47.5152 10.4242C47.5152 10.2424 47.6364 10.1818 47.8182 10.1818C47.9394 10.1818 48.0606 10.2424 48.0606 10.4242ZM47.5758 3.75758C47.1515 2.66667 46.303 2.18182 46.303 2.18182C45.9394 2.06061 46 2.48485 46 2.48485C47.5152 3.45455 47.5758 5.33333 47.5758 5.39394V8.54545C47.5758 8.72727 47.697 8.78788 47.8182 8.78788C47.9394 8.78788 48.0606 8.72727 48.0606 8.54545V5.39394C48.0606 5.33333 48.1818 3.45455 49.6364 2.48485C49.6364 2.48485 49.7576 2.06061 49.3333 2.18182C49.3333 2.18182 48.4849 2.66667 48.0606 3.75758C48.0606 3.39394 48.2424 1.69697 47.8182 1.69697C47.3939 1.69697 47.5758 3.39394 47.5758 3.75758Z" fill="#8DC543"/>
<path id="Vector_16" fill-rule="evenodd" clip-rule="evenodd" d="M48.2424 13.0303C49.4546 12.4242 53.5152 12.5455 52.6061 11.2121C52.0606 10.4849 51.8788 10.2424 52.4849 9.81819C53.1515 9.45455 53.0909 9.45455 53.0909 9.45455C53.0909 9.45455 52.5455 8.60606 53.0909 8.18182C53.697 7.69697 53.8788 7.75758 53.8788 7.75758C53.8788 7.75758 53.6364 6.84849 54.3636 6.72728C55.0303 6.66667 55.2727 6.90909 55.2727 6.90909C55.2727 6.90909 55.5758 6.12122 56.2424 6.12122C56.9697 6.12122 57.2727 6.78788 57.2727 6.78788C57.2727 6.78788 58.4849 6.12122 59.1515 7.33334C59.1515 7.33334 58 7.87879 57.697 9.57576C57.5758 10.2424 57.5152 10.7879 57.3939 11.3333C57.2727 10.6061 56.8485 9.09091 55.9394 8.48485C55.9394 8.48485 55.3333 8.06061 55.4546 8.48485C56.6667 9.9394 57.3939 12.303 56.2424 13.9394C56.2424 13.9394 56.1212 13.9394 56.1212 13.6364C56.1818 13.3333 56.1212 11.1515 54.9697 10.303C54.9697 10.303 54.3636 10 54.5455 10.4849C54.5455 10.4849 55.3939 11.1515 55.4546 12.1212C55.8788 16.6667 52.2424 16.6667 49.0303 16.7879C49.2121 15.2727 49.3333 14.303 48.2424 13.0303Z" fill="#036839"/>
<path id="Vector_17" d="M22.0606 15.0303L21.8182 15.3333H24.7273L24.9091 14.7879H24.7273L24.4242 15.0303H22.8485C22.8485 13.4545 23.3333 12.9697 23.6364 12.9697C23.8182 12.9697 23.9394 13.0909 23.9394 13.2727C23.9394 13.3333 23.8788 13.3939 23.7576 13.3939C23.7576 13.6364 23.9394 13.697 24.0606 13.697C24.2424 13.697 24.4242 13.5758 24.4242 13.2727C24.4242 12.9697 24.1212 12.7273 23.6364 12.7273C23.3939 12.7273 23.1515 12.7879 22.8485 12.9697V11.3333H24.4242L24.7273 11.5758H24.9091L24.7273 11.0303H21.8182L22.0606 11.3333V15.0303ZM27.5758 14.1818C27.5758 14.8485 27.0909 15.0909 26.6061 15.0909C26.0606 15.0909 25.6364 14.7879 25.6364 14.1212C25.6364 13.9394 25.697 13.7576 25.8182 13.6364C25.7576 13.6364 25.6364 13.5758 25.5758 13.5758C25.1515 13.5758 24.8485 13.8788 24.8485 14.2424C24.8485 15.0303 25.7576 15.4545 26.6061 15.4545C27.4545 15.4545 28.3636 15.0303 28.3636 14.1818C28.3636 12.7273 25.8788 13.2727 25.8788 12.1818C25.8788 11.5151 26.3636 11.2121 26.7879 11.2121C27.2121 11.2121 27.5758 11.4545 27.5758 11.8182C27.5758 12.0606 27.4545 12.2424 27.2727 12.2424C27.2727 12.2424 27.2121 12.2424 27.2121 12.1212C27.0909 12.1818 27.0303 12.2424 27.0303 12.3636C27.0303 12.4848 27.1515 12.6667 27.4545 12.6667C27.8788 12.6667 28.1212 12.303 28.1212 11.8788C28.1212 11.2727 27.4545 10.9091 26.7273 10.9091C25.9394 10.9091 25.0909 11.3333 25.0909 12.1818C25.0909 13.6364 27.5758 13.0303 27.5758 14.1818ZM29.5151 15.0303L29.2121 15.3333H30.5454L30.303 15.0303V11.5758H31.0909L31.3333 11.8182H31.4545L31.3333 11.0303H28.4848L28.3636 11.8182H28.4848L28.7273 11.5758H29.5151V15.0303ZM31.8788 13.8788C31.8182 14 31.7576 14.1818 31.7576 14.3636C31.7576 14.9697 32.3636 15.3333 33.0909 15.3333C34 15.3333 35.1515 14.7273 35.1515 13.1515C35.1515 12.0606 34.4848 11.0303 33.2727 11.0303H31.6364L31.8788 11.3333V13.8788ZM32.6061 14.0606C32.6667 14.0606 32.6667 14.1212 32.6667 14.1818C32.8485 14.1212 32.9091 13.8182 32.7273 13.697V11.3333H33.2727C34 11.3333 34.3636 12.2424 34.3636 13.1515C34.3636 14.6061 33.6364 15.0909 33.0303 15.0909C32.6667 15.0909 32.303 14.8485 32.303 14.4848C32.303 14.2424 32.4848 14.0606 32.6061 14.0606Z" fill="#036839"/>
<path id="Vector_18" d="M62.1212 14.0606C62.303 14.5454 62 14.9697 61.3939 14.9697C60.9697 14.9697 60.4848 14.7273 60.0606 14.6667C60.6667 13.9394 62.303 13.4545 62.303 12.303C62.303 10.7879 59.2121 10.9091 59.2121 12.3636C59.2121 12.7273 59.5151 13.0909 59.9394 13.0909C60.4242 13.0909 60.4242 12.6061 60.1818 12.6061C60.1818 12.6667 60.1212 12.6667 60.0606 12.6667C59.9394 12.6667 59.8182 12.4848 59.8182 12.303C59.8182 11.3939 61.4545 11.1515 61.4545 12.303C61.4545 13.3939 58.9697 14.1818 59.0303 15.5758C59.7576 15.0909 60.7879 15.5758 61.5758 15.5758C62.5454 15.5758 62.6667 14.4242 62.1212 14.0606ZM65.0303 11.2121C62.7273 11.2121 62.7273 15.5758 65.0303 15.5758C67.3333 15.5758 67.3333 11.2121 65.0303 11.2121ZM65.0303 11.5151C66.303 11.5151 66.303 15.2727 65.0303 15.2727C63.8182 15.2727 63.8182 11.5151 65.0303 11.5151ZM70.7273 14.0606C70.9091 14.5454 70.6667 14.9697 70 14.9697C69.5758 14.9697 69.0909 14.7273 68.6667 14.6667C69.2727 13.9394 70.9091 13.4545 70.9091 12.303C70.9091 10.7879 67.8182 10.9091 67.8182 12.3636C67.8182 12.7273 68.1212 13.0909 68.5454 13.0909C69.0909 13.0909 69.0303 12.6061 68.7879 12.6061C68.7879 12.6667 68.7273 12.6667 68.7273 12.6667C68.5454 12.6667 68.4242 12.4848 68.4242 12.303C68.4242 11.3939 70.0606 11.1515 70.0606 12.303C70.0606 13.3939 67.6364 14.1818 67.6364 15.5758C68.3636 15.0909 69.3939 15.5758 70.1818 15.5758C71.1515 15.5758 71.2727 14.4242 70.7273 14.0606ZM74.2424 15.2727L74 15.5151V15.5758H74.303V15.2727H74.2424ZM75.0303 15.2727V15.5758H75.3333V15.5151L75.0909 15.2727H75.0303ZM74 12.0606V12.1212H74.2424V15.5758H75.0909V11.2121L74 12.0606ZM75.0909 13.5758H75.3939V13.2727H75.3333L75.0909 13.5151V13.5758ZM75.0909 14L75.3333 14.303H75.3939V14H75.0909ZM71.9394 14H75.3939V13.5151H71.9394V14ZM73.7576 11.6364C73.7576 11.1515 73.3333 10.8485 72.8485 10.8485C73.0303 10.9091 73.1515 11.0909 73.1515 11.3939C73.1515 12.4848 72.3636 13.3333 71.9394 13.5151V14C72.5454 13.8788 73.7576 12.6667 73.7576 11.6364Z" fill="#036839"/>
</g>
</g>
</svg>
