<svg width="48" height="48" viewBox="0 0 48 48" fill="none" xmlns="http://www.w3.org/2000/svg">
<g id="tabler-icon-chart-area-line-filled">
<g id="Vector">
<path d="M31.1556 18.3889C31.5202 17.9339 32.0492 17.6404 32.6283 17.5718C33.2074 17.5032 33.7902 17.665 34.2511 18.0223L34.46 18.2067L43.3489 27.0956C43.6943 27.4413 43.9161 27.8911 43.98 28.3756L44 28.6667V39.7778C43.9999 40.3221 43.8001 40.8474 43.4384 41.2542C43.0767 41.6609 42.5783 41.9208 42.0378 41.9845L41.7778 42H6.17336L5.92891 41.98L5.68447 41.9356L5.44669 41.86L5.21336 41.7578L4.99114 41.6267L4.78225 41.4711L4.64892 41.3489L4.48892 41.1667L4.34669 40.9689L4.22669 40.7556L4.19114 40.6778L4.10225 40.4489L4.04225 40.2133L4.00892 39.9734L4.00003 39.7289L4.02003 39.4845L4.06225 39.2511C4.08447 39.1622 4.11114 39.08 4.14003 39.0022L4.24225 38.7689L4.37336 38.5467L13.2622 25.2134C13.5358 24.8015 13.939 24.4926 14.4079 24.3356C14.8768 24.1786 15.3847 24.1825 15.8511 24.3467L16.1045 24.4578L23.3867 28.0978L31.1533 18.3889H31.1556Z" fill="#90EE91"/>
<path d="M31.1821 5.02223C31.5509 4.57924 32.0773 4.29685 32.6503 4.23466C33.2233 4.17247 33.798 4.33534 34.2532 4.6889L34.4599 4.87334L43.3488 13.7622C43.7473 14.1621 43.9787 14.6987 43.996 15.2631C44.0132 15.8274 43.815 16.3771 43.4416 16.8006C43.0682 17.2241 42.5476 17.4896 41.9855 17.5431C41.4235 17.5966 40.8621 17.4342 40.4155 17.0889L40.2066 16.9044L33.0377 9.73778L23.4844 21.2C23.1942 21.5481 22.8045 21.7991 22.3676 21.9195C21.9307 22.0398 21.4674 22.0237 21.0399 21.8733L20.7844 21.7644L13.5533 18.1511L7.99993 25.5555C7.67528 25.9885 7.20381 26.2881 6.67398 26.3982C6.14415 26.5082 5.59236 26.4212 5.12215 26.1533L4.88882 26C4.45587 25.6753 4.15626 25.2039 4.04621 24.674C3.93615 24.1442 4.0232 23.5924 4.29104 23.1222L4.44437 22.8889L11.111 14C11.396 13.6204 11.7951 13.342 12.2498 13.2057C12.7044 13.0693 13.1908 13.0821 13.6377 13.2422L13.8821 13.3467L21.1955 17.0022L31.1821 5.02223Z" fill="#90EE91"/>
<path d="M31.1556 18.3889C31.5202 17.9339 32.0492 17.6404 32.6283 17.5718C33.2074 17.5032 33.7902 17.665 34.2511 18.0223L34.46 18.2067L43.3489 27.0956C43.6943 27.4413 43.9161 27.8911 43.98 28.3756L44 28.6667V39.7778C43.9999 40.3221 43.8001 40.8474 43.4384 41.2542C43.0767 41.6609 42.5783 41.9208 42.0378 41.9845L41.7778 42H6.17336L5.92891 41.98L5.68447 41.9356L5.44669 41.86L5.21336 41.7578L4.99114 41.6267L4.78225 41.4711L4.64892 41.3489L4.48892 41.1667L4.34669 40.9689L4.22669 40.7556L4.19114 40.6778L4.10225 40.4489L4.04225 40.2133L4.00892 39.9734L4.00003 39.7289L4.02003 39.4845L4.06225 39.2511C4.08447 39.1622 4.11114 39.08 4.14003 39.0022L4.24225 38.7689L4.37336 38.5467L13.2622 25.2134C13.5358 24.8015 13.939 24.4926 14.4079 24.3356C14.8768 24.1786 15.3847 24.1825 15.8511 24.3467L16.1045 24.4578L23.3867 28.0978L31.1533 18.3889H31.1556Z" stroke="#90EE91"/>
<path d="M31.1821 5.02223C31.5509 4.57924 32.0773 4.29685 32.6503 4.23466C33.2233 4.17247 33.798 4.33534 34.2532 4.6889L34.4599 4.87334L43.3488 13.7622C43.7473 14.1621 43.9787 14.6987 43.996 15.2631C44.0132 15.8274 43.815 16.3771 43.4416 16.8006C43.0682 17.2241 42.5476 17.4896 41.9855 17.5431C41.4235 17.5966 40.8621 17.4342 40.4155 17.0889L40.2066 16.9044L33.0377 9.73778L23.4844 21.2C23.1942 21.5481 22.8045 21.7991 22.3676 21.9195C21.9307 22.0398 21.4674 22.0237 21.0399 21.8733L20.7844 21.7644L13.5533 18.1511L7.99993 25.5555C7.67528 25.9885 7.20381 26.2881 6.67398 26.3982C6.14415 26.5082 5.59236 26.4212 5.12215 26.1533L4.88882 26C4.45587 25.6753 4.15626 25.2039 4.04621 24.674C3.93615 24.1442 4.0232 23.5924 4.29104 23.1222L4.44437 22.8889L11.111 14C11.396 13.6204 11.7951 13.342 12.2498 13.2057C12.7044 13.0693 13.1908 13.0821 13.6377 13.2422L13.8821 13.3467L21.1955 17.0022L31.1821 5.02223Z" stroke="#90EE91"/>
</g>
</g>
</svg>
