<svg width="48" height="48" viewBox="0 0 48 48" fill="none" xmlns="http://www.w3.org/2000/svg">
<g id="tabler-icon-stars-filled">
<g id="Vector">
<path d="M35.314 24.014C34.847 24.062 34.3998 24.2275 34.0141 24.4951C33.6283 24.7626 33.3166 25.1235 33.108 25.544L31.398 28.99L27.584 29.544C26.544 29.688 25.664 30.424 25.336 31.432L25.26 31.712C25.06 32.642 25.352 33.62 26.046 34.292L28.8 36.966L28.148 40.75C28.0625 41.261 28.1212 41.7857 28.3175 42.2652C28.5137 42.7446 28.8398 43.1599 29.2591 43.4642C29.6783 43.7686 30.1742 43.95 30.6909 43.9882C31.2075 44.0263 31.7246 43.9196 32.184 43.68L35.6 41.89L39.016 43.682C39.4744 43.9233 39.9912 44.0316 40.508 43.9944C41.0247 43.9573 41.5208 43.7764 41.94 43.472L42.164 43.292C42.5148 42.9776 42.78 42.5792 42.9346 42.1342C43.0893 41.6892 43.1283 41.2122 43.048 40.748L42.398 36.966L45.158 34.288C45.918 33.546 46.19 32.44 45.862 31.434L45.76 31.166C45.5685 30.7365 45.2712 30.3626 44.8959 30.0793C44.5206 29.796 44.0795 29.6125 43.614 29.546L39.8 28.99L38.094 25.546C37.8633 25.0818 37.5076 24.6912 37.067 24.4181C36.6264 24.1449 36.1184 24.0002 35.6 24L35.314 24.014Z" fill="#90EE91"/>
<path d="M12.114 24.014C11.6471 24.062 11.1999 24.2275 10.8141 24.4951C10.4284 24.7626 10.1167 25.1235 9.90804 25.544L8.19804 28.99L4.38404 29.544C3.34404 29.688 2.46404 30.424 2.13604 31.432L2.06004 31.712C1.86004 32.642 2.15204 33.62 2.84604 34.292L5.60004 36.966L4.94804 40.75C4.86256 41.261 4.92125 41.7857 5.11752 42.2652C5.3138 42.7446 5.63988 43.1599 6.05914 43.4642C6.47839 43.7686 6.97422 43.95 7.4909 43.9882C8.00759 44.0263 8.52466 43.9196 8.98404 43.68L12.4 41.89L15.816 43.682C16.2745 43.9233 16.7913 44.0316 17.308 43.9944C17.8248 43.9573 18.3208 43.7764 18.74 43.472L18.964 43.292C19.3149 42.9776 19.5801 42.5792 19.7347 42.1342C19.8893 41.6892 19.9283 41.2122 19.848 40.748L19.2 36.966L21.96 34.288C22.72 33.546 22.992 32.44 22.664 31.434L22.562 31.166C22.3706 30.7365 22.0732 30.3626 21.6979 30.0793C21.3226 29.796 20.8816 29.6125 20.416 29.546L16.6 28.988L14.894 25.544C14.663 25.0802 14.3073 24.69 13.8667 24.4172C13.4261 24.1444 12.9182 24 12.4 24L12.114 24.014Z" fill="#90EE91"/>
<path d="M23.7139 4.014C23.2469 4.06203 22.7997 4.22752 22.414 4.49506C22.0282 4.7626 21.7165 5.12346 21.5079 5.544L19.7979 8.99L15.9839 9.544C14.9439 9.688 14.0639 10.424 13.7359 11.432L13.6599 11.712C13.4599 12.642 13.7519 13.62 14.4459 14.292L17.1999 16.966L16.5479 20.75C16.4624 21.261 16.5211 21.7857 16.7174 22.2652C16.9137 22.7446 17.2397 23.1599 17.659 23.4642C18.0782 23.7686 18.5741 23.95 19.0908 23.9882C19.6074 24.0263 20.1245 23.9196 20.5839 23.68L23.9999 21.892L27.4179 23.684C27.8763 23.9253 28.3931 24.0336 28.9099 23.9964C29.4266 23.9593 29.9227 23.7784 30.3419 23.474L30.5659 23.294C30.9167 22.9796 31.1819 22.5812 31.3365 22.1362C31.4912 21.6912 31.5302 21.2142 31.4499 20.75L30.7999 16.966L33.5599 14.288C34.3199 13.546 34.5919 12.44 34.2639 11.434L34.1619 11.166C33.9704 10.7365 33.6731 10.3626 33.2978 10.0793C32.9225 9.79597 32.4814 9.61249 32.0159 9.546L28.1999 8.988L26.4939 5.544C26.2629 5.08017 25.9071 4.68995 25.4665 4.4172C25.026 4.14445 24.5181 3.99997 23.9999 4L23.7139 4.014Z" fill="#90EE91"/>
<path d="M35.314 24.014C34.847 24.062 34.3998 24.2275 34.0141 24.4951C33.6283 24.7626 33.3166 25.1235 33.108 25.544L31.398 28.99L27.584 29.544C26.544 29.688 25.664 30.424 25.336 31.432L25.26 31.712C25.06 32.642 25.352 33.62 26.046 34.292L28.8 36.966L28.148 40.75C28.0625 41.261 28.1212 41.7857 28.3175 42.2652C28.5137 42.7446 28.8398 43.1599 29.2591 43.4642C29.6783 43.7686 30.1742 43.95 30.6909 43.9882C31.2075 44.0263 31.7246 43.9196 32.184 43.68L35.6 41.89L39.016 43.682C39.4744 43.9233 39.9912 44.0316 40.508 43.9944C41.0247 43.9573 41.5208 43.7764 41.94 43.472L42.164 43.292C42.5148 42.9776 42.78 42.5792 42.9346 42.1342C43.0893 41.6892 43.1283 41.2122 43.048 40.748L42.398 36.966L45.158 34.288C45.918 33.546 46.19 32.44 45.862 31.434L45.76 31.166C45.5685 30.7365 45.2712 30.3626 44.8959 30.0793C44.5206 29.796 44.0795 29.6125 43.614 29.546L39.8 28.99L38.094 25.546C37.8633 25.0818 37.5076 24.6912 37.067 24.4181C36.6264 24.1449 36.1184 24.0002 35.6 24L35.314 24.014Z" stroke="#90EE91"/>
<path d="M12.114 24.014C11.6471 24.062 11.1999 24.2275 10.8141 24.4951C10.4284 24.7626 10.1167 25.1235 9.90804 25.544L8.19804 28.99L4.38404 29.544C3.34404 29.688 2.46404 30.424 2.13604 31.432L2.06004 31.712C1.86004 32.642 2.15204 33.62 2.84604 34.292L5.60004 36.966L4.94804 40.75C4.86256 41.261 4.92125 41.7857 5.11752 42.2652C5.3138 42.7446 5.63988 43.1599 6.05914 43.4642C6.47839 43.7686 6.97422 43.95 7.4909 43.9882C8.00759 44.0263 8.52466 43.9196 8.98404 43.68L12.4 41.89L15.816 43.682C16.2745 43.9233 16.7913 44.0316 17.308 43.9944C17.8248 43.9573 18.3208 43.7764 18.74 43.472L18.964 43.292C19.3149 42.9776 19.5801 42.5792 19.7347 42.1342C19.8893 41.6892 19.9283 41.2122 19.848 40.748L19.2 36.966L21.96 34.288C22.72 33.546 22.992 32.44 22.664 31.434L22.562 31.166C22.3706 30.7365 22.0732 30.3626 21.6979 30.0793C21.3226 29.796 20.8816 29.6125 20.416 29.546L16.6 28.988L14.894 25.544C14.663 25.0802 14.3073 24.69 13.8667 24.4172C13.4261 24.1444 12.9182 24 12.4 24L12.114 24.014Z" stroke="#90EE91"/>
<path d="M23.7139 4.014C23.2469 4.06203 22.7997 4.22752 22.414 4.49506C22.0282 4.7626 21.7165 5.12346 21.5079 5.544L19.7979 8.99L15.9839 9.544C14.9439 9.688 14.0639 10.424 13.7359 11.432L13.6599 11.712C13.4599 12.642 13.7519 13.62 14.4459 14.292L17.1999 16.966L16.5479 20.75C16.4624 21.261 16.5211 21.7857 16.7174 22.2652C16.9137 22.7446 17.2397 23.1599 17.659 23.4642C18.0782 23.7686 18.5741 23.95 19.0908 23.9882C19.6074 24.0263 20.1245 23.9196 20.5839 23.68L23.9999 21.892L27.4179 23.684C27.8763 23.9253 28.3931 24.0336 28.9099 23.9964C29.4266 23.9593 29.9227 23.7784 30.3419 23.474L30.5659 23.294C30.9167 22.9796 31.1819 22.5812 31.3365 22.1362C31.4912 21.6912 31.5302 21.2142 31.4499 20.75L30.7999 16.966L33.5599 14.288C34.3199 13.546 34.5919 12.44 34.2639 11.434L34.1619 11.166C33.9704 10.7365 33.6731 10.3626 33.2978 10.0793C32.9225 9.79597 32.4814 9.61249 32.0159 9.546L28.1999 8.988L26.4939 5.544C26.2629 5.08017 25.9071 4.68995 25.4665 4.4172C25.026 4.14445 24.5181 3.99997 23.9999 4L23.7139 4.014Z" stroke="#90EE91"/>
</g>
</g>
</svg>
