<svg width="48" height="48" viewBox="0 0 48 48" fill="none" xmlns="http://www.w3.org/2000/svg">
<g id="vaadin:group">
<path id="Vector" d="M15.75 46.0113V31.4363C14.1 30.6113 13 28.6863 13 26.7613V15.7613C13 13.8363 14.1 12.1863 15.75 11.0863V10.2613C15.75 7.23628 13.275 4.76128 10.25 4.76128C7.225 4.76128 4.75 7.23628 4.75 10.2613C4.75 13.2863 7.225 15.7613 10.25 15.7613H4.75C3.375 15.7613 2 17.1363 2 18.5113V29.5113C2 30.8863 3.375 32.2613 4.75 32.2613V46.0113H15.75ZM43.25 15.7613H37.75C40.775 15.7613 43.25 13.2863 43.25 10.2613C43.25 7.23628 40.775 4.76128 37.75 4.76128C34.725 4.76128 32.25 7.23628 32.25 10.2613V11.0863C33.9 12.1863 35 13.8363 35 15.7613V26.7613C35 28.6863 33.9 30.6113 32.25 31.4363V46.0113H43.25V32.2613C44.625 32.2613 46 30.8863 46 29.5113V18.5113C46 17.1363 44.625 15.7613 43.25 15.7613ZM29.5 7.51128C29.5166 8.24371 29.3866 8.97207 29.1178 9.65359C28.849 10.3351 28.4468 10.9561 27.9347 11.48C27.4226 12.0039 26.811 12.4203 26.1358 12.7046C25.4606 12.9889 24.7354 13.1354 24.0028 13.1356C23.2702 13.1358 22.5449 12.9896 21.8695 12.7056C21.1942 12.4217 20.5824 12.0056 20.07 11.482C19.5577 10.9583 19.1551 10.3375 18.886 9.65615C18.6169 8.97476 18.4866 8.24647 18.5027 7.51403C18.5345 6.07698 19.1276 4.70948 20.1551 3.70426C21.1825 2.69904 22.5626 2.13598 24 2.13562C25.4374 2.13526 26.8178 2.69763 27.8458 3.70234C28.8737 4.70704 29.4675 6.07425 29.5 7.51128Z" fill="#90EE91"/>
<path id="Vector_2" d="M29.5 13.0114H18.5C17.125 13.0114 15.75 14.3864 15.75 15.7614V26.7614C15.75 28.1364 17.125 29.5114 18.5 29.5114V46.0114H29.5V29.5114C30.875 29.5114 32.25 28.1364 32.25 26.7614V15.7614C32.25 14.3864 30.875 13.0114 29.5 13.0114Z" fill="#90EE91"/>
</g>
</svg>
